HIERARCHY
ROOT pelvis
{
  OFFSET 0 100 0
  CHANNELS 6 Xposition Yposition Zposition Zrotation Xrotation Yrotation
  JOINT pelvis_right_femur
  {
    OFFSET -10.78128 -3.44521 -0.5502486
    CHANNELS 3 Zrotation Xrotation Yrotation
    JOINT right_femur_tibia
    {
      OFFSET -0.8047443 -44.0398 -0.1307829
      CHANNELS 3 Zrotation Xrotation Yrotation
      JOINT right_tibia_foot
      {
        OFFSET 3.006224 -47.83518 -5
        CHANNELS 3 Zrotation Xrotation Yrotation
        End Site
        {
          OFFSET 0 -5 15
        }
      }
    }
  }
  JOINT pelvis_left_femur
  {
    OFFSET 10.78128 -3.44521 -0.5502486
    CHANNELS 3 Zrotation Xrotation Yrotation
    JOINT left_femur_tibia
    {
      OFFSET 0.8047443 -44.0398 -0.1307829
      CHANNELS 3 Zrotation Xrotation Yrotation
      JOINT left_tibia_foot
      {
        OFFSET -4.370144 -48.10324 -4.275266
        CHANNELS 3 Zrotation Xrotation Yrotation
        End Site
        {
          OFFSET 0 -5 15
        }
      }
    }
  }
  JOINT pelvis_spine1
  {
    OFFSET 0 6.468898 -3.129235
    CHANNELS 3 Zrotation Xrotation Yrotation
    JOINT spine1
    {
      OFFSET 0 23.15396 4.99043
      CHANNELS 3 Zrotation Xrotation Yrotation
      JOINT spine2
      {
        OFFSET 0 20.79997 -5.064912
        CHANNELS 3 Zrotation Xrotation Yrotation
        JOINT neck
        {
          OFFSET 0 14.38658 9.616178
          CHANNELS 3 Zrotation Xrotation Yrotation
          End Site
          {
            OFFSET 0 20 0
          }
        }
      }
      JOINT right_manubrium
      {
        OFFSET -5.722621 16.35077 3.967754
        CHANNELS 3 Zrotation Xrotation Yrotation
        JOINT right_clavicle
        {
          OFFSET -13.16364 1.694482 -4.693211
          CHANNELS 3 Zrotation Xrotation Yrotation
          JOINT right_humerus
          {
            OFFSET -28.5034 -0.3100689 -2.792744
            CHANNELS 3 Zrotation Xrotation Yrotation
            JOINT right_radius
            {
              OFFSET -25.15693 0.02248979 -1.271978
              CHANNELS 3 Zrotation Xrotation Yrotation
              End Site
              {
                OFFSET -15 0 0
              }
            }
          }
        }
      }
      JOINT left_manubrium
      {
        OFFSET 5.722621 16.35077 3.967754
        CHANNELS 3 Zrotation Xrotation Yrotation
        JOINT left_clavicle
        {
          OFFSET 13.16364 1.694482 -4.693211
          CHANNELS 3 Zrotation Xrotation Yrotation
          JOINT left_humerus
          {
            OFFSET 29.39168 -1.063119 -2.237045
            CHANNELS 3 Zrotation Xrotation Yrotation
            JOINT left_radius
            {
              OFFSET 24.59957 -0.9528479 0.9047498
              CHANNELS 3 Zrotation Xrotation Yrotation
              End Site
              {
                OFFSET 15 -0 -0
              }
            }
          }
        }
      }
    }
  }
}
MOTION
Frames: 9
Frame Time: 0.0416666666667
0 103.5113 0 2.251411 -2.539632 0.2903345 1.409716 -10.32451 8.033507 -0 38.5315 -0 -4.928873 -17.3912 -3.656 -7.700473 11.20874 -23.97917 -0 2.677285 -0 7.833925 -15.23025 26.39738 -2.521834 -3.032842 5.315706 2.468762 9.415465 -7.520641 1.32628 21.94129 5.699972 2.274949 -24.98384 8.888195 5.827464 -19.28724 11.21353 84.99772 34.65906 -18.17549 -0 0 16.80563 -6.73826 7.100219 4.448119 5.540616 -19.79379 -0.3650312 -94.77654 26.14945 23.67369 0 0 -12.91758 8.501304 17.05007 3.255564
0.3053895 103.3891 1.342626 1.951783 -1.683668 0.4012848 2.084386 -12.84849 8.957964 -0 38.56412 -0 -4.158754 -17.35241 -3.958172 -7.626868 11.19994 -24.00948 -0 3.433826 -0 7.432646 -16.36207 26.44316 -2.607609 -3.069692 5.41079 2.362312 9.387711 -7.369036 1.334123 22.12398 5.553831 2.176849 -24.77501 8.796517 5.818861 -19.35099 11.14708 84.70876 34.7805 -17.66872 -0 0 17.01485 -6.901857 7.017172 4.621249 5.392233 -19.64611 -0.3563759 -94.94287 26.2856 23.96698 0 0 -12.35942 8.382757 17.24104 3.360514
0.5946832 103.225 2.953447 1.187807 -1.224403 0.4522638 3.208068 -17.07262 7.890564 -0 36.03407 -0 -5.41976 -15.1108 -3.493138 -7.104357 11.64722 -22.97801 -0 5.171183 -0 6.12905 -18.38096 25.28899 -2.403933 -2.763782 5.365628 2.365606 9.567241 -7.352279 1.268826 21.95683 5.729062 2.369051 -24.74696 8.718274 5.869109 -19.13473 11.22606 84.99701 35.05755 -17.97478 -0 0 16.27192 -7.172328 7.350297 4.8966 5.333555 -19.77178 -0.7107044 -94.41287 25.99278 23.49358 0 0 -13.4843 8.372795 16.37946 3.602558
0.887057 103.0169 4.79586 0.6094955 -0.3697003 0.4805194 4.197549 -20.97141 7.672475 -0 33.57523 -0 -5.696718 -13.5631 -3.231722 -6.79033 11.86272 -22.17271 -0 6.001767 -0 5.724224 -19.84748 24.65113 -2.193449 -2.55009 5.243963 2.483219 9.677599 -7.524635 1.223588 21.67481 5.960095 2.564359 -24.95626 8.755322 5.869383 -18.95436 11.33106 85.52589 35.07341 -18.76531 -0 0 15.6354 -7.096499 7.574261 4.827183 5.434278 -20.00919 -0.9439849 -93.95074 25.86412 22.94743 0 0 -14.86291 8.349319 15.69423 3.814307
1.186923 102.7024 6.981012 0.0238705 0.6249783 0.5259632 5.202272 -25.17799 7.281569 -0 30.12696 -0 -6.022455 -11.57166 -2.81254 -6.48057 12.17118 -21.14169 -0 6.576269 -0 5.501518 -21.2687 23.87812 -1.968895 -2.317185 5.113251 2.604133 9.788502 -7.703925 1.170086 21.36341 6.216071 2.782264 -25.16733 8.786718 5.851745 -18.75601 11.43877 86.09528 35.12023 -19.59293 -0 0 14.92536 -7.076647 7.837703 4.80443 5.544247 -20.28359 -1.202675 -93.41024 25.70924 22.32752 0 0 -16.41867 8.327299 14.91265 4.05868
1.488266 102.256 9.560232 -0.4919783 1.684675 0.6350602 6.111723 -29.01437 6.990165 -0 26.493 -0 -6.218817 -9.540535 -2.408045 -6.214432 12.56025 -20.15556 -0 6.922825 -0 5.236185 -22.47908 23.04629 -1.765501 -2.112184 4.994876 2.713164 9.874719 -7.875856 1.117789 21.06983 6.452727 2.983577 -25.35801 8.80931 5.811663 -18.58133 11.53195 86.6373 35.16815 -20.37051 -0 0 14.28004 -7.081566 8.076779 4.798883 5.650295 -20.55751 -1.442081 -92.90208 25.61493 21.75737 0 0 -17.93209 8.261163 14.18455 4.355117
1.778003 101.6701 12.60771 -0.9704012 2.720137 0.8513897 6.920597 -32.33122 6.650892 -0 22.7776 -0 -6.458923 -7.35334 -1.986267 -5.946404 13.09623 -19.16592 -0 7.366139 -0 4.647725 -23.41748 21.94724 -1.588624 -1.925544 4.900977 2.788948 9.955367 -8.010871 1.064111 20.82016 6.654759 3.16356 -25.47364 8.798742 5.768029 -18.42346 11.6082 87.11103 35.24644 -21.02111 -0 0 13.69465 -7.178093 8.317499 4.862918 5.726793 -20.81041 -1.678072 -92.42318 25.54176 21.24831 0 0 -19.31041 8.150126 13.50049 4.701944
2.040976 100.9777 16.1813 -1.427483 3.626707 1.204069 7.619914 -34.7844 6.286594 -0 19.43945 -0 -6.782302 -5.170221 -1.592125 -5.647948 13.75239 -18.20722 -0 8.28897 -0 3.538779 -23.88309 20.4762 -1.444157 -1.762474 4.837516 2.825018 10.0368 -8.103378 1.010793 20.63095 6.808794 3.312866 -25.49627 8.747861 5.732437 -18.2873 11.66712 87.49982 35.34556 -21.52633 -0 0 13.19603 -7.365861 8.555461 4.988868 5.764151 -21.02755 -1.907628 -92.00135 25.50071 20.82924 0 0 -20.47657 7.97631 12.89361 5.108302
2.266758 100.2598 20.32908 -1.890609 4.298592 1.695084 8.231093 -36.10365 5.901746 -0 16.82835 -0 -7.228995 -3.157571 -1.2504 -5.286571 14.43748 -17.24528 -0 10.2127 -0 1.832701 -23.61284 18.55552 -1.334431 -1.620322 4.807833 2.81677 10.12828 -8.147596 0.958538 20.51283 6.907438 3.427413 -25.41041 8.650306 5.715859 -18.17173 11.71027 87.79028 35.46315 -21.86882 -0 0 12.79025 -7.655697 8.797703 5.178617 5.75348 -21.19741 -2.132637 -91.6452 25.48282 20.50864 0 0 -21.37891 7.736053 12.37323 5.570289
